<svg width="25" height="25" viewBox="0 0 25 25" fill="none" xmlns="http://www.w3.org/2000/svg">
<path d="M24.9773 15.0178C25.5342 4.6214 15.7129 1.4415 12.1837 1.78304C5.12533 2.46611 0.4933 7.51814 0.0520821 12.812C-0.565951 20.2274 4.46364 23.1057 7.33121 24.0616C8.65466 24.5027 24.3155 27.3703 24.9773 15.0178Z" fill="#8C8C8C"/>
<path fill-rule="evenodd" clip-rule="evenodd" d="M10.7862 2.05547C10.6459 1.7015 10.4914 1.12135 10.6402 1.12135C10.8167 1.12135 11.5961 1.41546 11.9637 1.56251C11.9637 0.974301 12.052 -0.158006 12.4049 0.0184573C12.7578 0.194921 12.846 1.2684 12.846 1.78308C13.1401 1.34192 13.7725 0.503719 13.9489 0.680182C14.0903 0.821552 14.1467 1.44426 14.1636 1.91318C17.8047 2.56169 23.5896 5.72013 23.1941 13.2769C22.6335 23.9846 9.36867 21.4989 8.24769 21.1165C5.81883 20.2879 1.55872 17.7928 2.0822 11.3648C2.42209 7.19109 5.6982 3.19082 10.7862 2.05547Z" fill="#A6A6A6"/>
<ellipse cx="9.53685" cy="16.3413" rx="0.441151" ry="0.882317" fill="#615757"/>
<ellipse cx="15.2722" cy="16.3413" rx="0.441151" ry="0.882317" fill="#615757"/>
</svg>
