<svg width="26" height="25" viewBox="0 0 26 25" fill="none" xmlns="http://www.w3.org/2000/svg">
<path d="M25.3221 15.2249C25.8867 4.68511 15.9299 1.46136 12.3519 1.80761C5.19608 2.50009 0.50011 7.62178 0.0528011 12.9886C-0.573764 20.5063 4.52526 23.4243 7.43241 24.3933C8.77414 24.8406 24.6512 27.7476 25.3221 15.2249Z" fill="#EB7BAA"/>
<path fill-rule="evenodd" clip-rule="evenodd" d="M10.9345 2.08371C10.7923 1.72485 10.6357 1.13681 10.7866 1.13681C10.9655 1.13681 11.7556 1.43497 12.1284 1.58406C12.1284 0.987734 12.2178 -0.160185 12.5756 0.0187118C12.9334 0.197608 13.0228 1.28589 13.0228 1.80766C13.321 1.36042 13.962 0.510664 14.1409 0.68956C14.2843 0.832879 14.3415 1.46417 14.3586 1.93955C18.05 2.5971 23.9145 5.79912 23.5135 13.4599C22.9452 24.3153 9.49721 21.7953 8.36076 21.4076C5.89837 20.5676 1.57945 18.0381 2.11015 11.5214C2.45474 7.29013 5.77616 3.23466 10.9345 2.08371Z" fill="#F997CC"/>
<ellipse cx="9.66892" cy="16.5666" rx="0.447241" ry="0.894482" fill="#615757"/>
<ellipse cx="15.4824" cy="16.5666" rx="0.447241" ry="0.894482" fill="#615757"/>
</svg>
