<svg width="25" height="25" viewBox="0 0 25 25" fill="none" xmlns="http://www.w3.org/2000/svg">
<path d="M24.9773 15.0175C25.5342 4.62129 15.7129 1.44145 12.1837 1.78298C5.12533 2.46604 0.4933 7.51798 0.0520821 12.8118C-0.565951 20.227 4.46364 23.1053 7.33121 24.0611C8.65466 24.5023 24.3155 27.3698 24.9773 15.0175Z" fill="#74A9CF"/>
<path fill-rule="evenodd" clip-rule="evenodd" d="M10.7844 2.05538C10.6442 1.70141 10.4897 1.12133 10.6385 1.12133C10.815 1.12133 11.5944 1.41543 11.962 1.56248C11.962 0.974284 12.0503 -0.158003 12.4032 0.018457C12.7561 0.194917 12.8443 1.26838 12.8443 1.78305C13.1384 1.3419 13.7708 0.50371 13.9472 0.68017C14.0886 0.821543 14.145 1.44428 14.1619 1.91319C17.803 2.5618 23.5877 5.72022 23.1921 13.2767C22.6316 23.9842 9.36672 21.4985 8.24574 21.1161C5.81688 20.2875 1.55677 17.7925 2.08025 11.3646C2.42015 7.1909 5.69635 3.19064 10.7844 2.05538Z" fill="#9EC7E4"/>
<ellipse cx="9.53685" cy="16.341" rx="0.441151" ry="0.882302" fill="#615757"/>
<ellipse cx="15.2712" cy="16.341" rx="0.441151" ry="0.882302" fill="#615757"/>
</svg>
