<svg width="25" height="25" viewBox="0 0 25 25" fill="none" xmlns="http://www.w3.org/2000/svg">
<path d="M24.9773 15.0178C25.5342 4.6214 15.7129 1.4415 12.1837 1.78304C5.12533 2.46611 0.4933 7.51814 0.0520821 12.812C-0.565951 20.2274 4.46364 23.1057 7.33121 24.0616C8.65466 24.5027 24.3155 27.3703 24.9773 15.0178Z" fill="#F6D769"/>
<path fill-rule="evenodd" clip-rule="evenodd" d="M10.7852 2.05546C10.6449 1.70149 10.4905 1.12135 10.6393 1.12135C10.8157 1.12135 11.5951 1.41546 11.9628 1.56251C11.9628 0.974301 12.051 -0.158006 12.4039 0.0184573C12.7568 0.194921 12.8451 1.2684 12.8451 1.78308C13.1392 1.34192 13.7715 0.503719 13.948 0.680182C14.0893 0.821552 14.1458 1.44426 14.1626 1.91317C17.8037 2.56169 23.5887 5.72013 23.1931 13.2769C22.6326 23.9846 9.36769 21.4989 8.24671 21.1165C5.81785 20.2879 1.55774 17.7928 2.08122 11.3648C2.42112 7.19108 5.69723 3.19081 10.7852 2.05546Z" fill="#F9E397"/>
<ellipse cx="9.53685" cy="16.3413" rx="0.441151" ry="0.882317" fill="#615757"/>
<ellipse cx="15.2712" cy="16.3413" rx="0.441151" ry="0.882317" fill="#615757"/>
</svg>
