<svg width="86" height="86" viewBox="0 0 86 86" fill="none" xmlns="http://www.w3.org/2000/svg">
<circle cx="43" cy="43" r="43" fill="#D9EDFF"/>
<path d="M32.1912 36.5317C31.127 35.3827 29.6406 34.75 28 34.75C26.3506 34.75 24.8593 35.3789 23.8 36.5208C22.7292 37.6752 22.2075 39.2442 22.33 40.9384C22.5728 44.2809 25.1163 47 28 47C30.8837 47 33.4228 44.2815 33.6694 40.9395C33.7936 39.2606 33.2686 37.6949 32.1912 36.5317Z" fill="#224164"/>
<path d="M37.6249 59.25H18.3749C18.123 59.2533 17.8735 59.2003 17.6445 59.0951C17.4156 58.9898 17.213 58.8348 17.0515 58.6413C16.696 58.2164 16.5528 57.6362 16.6589 57.0494C17.1204 54.4889 18.5609 52.338 20.8249 50.8281C22.8364 49.4877 25.3842 48.75 27.9999 48.75C30.6157 48.75 33.1635 49.4883 35.1749 50.8281C37.439 52.3375 38.8795 54.4884 39.341 57.0488C39.4471 57.6356 39.3039 58.2159 38.9484 58.6408C38.7869 58.8343 38.5844 58.9894 38.3554 59.0948C38.1265 59.2002 37.877 59.2532 37.6249 59.25Z" fill="#224164"/>
<path d="M62.1912 36.5317C61.127 35.3827 59.6406 34.75 58 34.75C56.3506 34.75 54.8593 35.3789 53.8 36.5208C52.7292 37.6752 52.2075 39.2442 52.33 40.9384C52.5728 44.2809 55.1163 47 58 47C60.8837 47 63.4228 44.2815 63.6694 40.9395C63.7936 39.2606 63.2686 37.6949 62.1912 36.5317Z" fill="#224164"/>
<path d="M67.6249 59.25H48.3749C48.123 59.2533 47.8735 59.2003 47.6445 59.0951C47.4156 58.9898 47.213 58.8348 47.0515 58.6413C46.696 58.2164 46.5528 57.6362 46.6589 57.0494C47.1204 54.4889 48.5609 52.338 50.8249 50.8281C52.8364 49.4877 55.3842 48.75 57.9999 48.75C60.6157 48.75 63.1635 49.4883 65.1749 50.8281C67.439 52.3375 68.8795 54.4884 69.341 57.0488C69.4471 57.6356 69.3039 58.2159 68.9484 58.6408C68.7869 58.8343 68.5844 58.9894 68.3554 59.0948C68.1265 59.2002 67.877 59.2532 67.6249 59.25Z" fill="#224164"/>
<path d="M43 26.9375V37.0625" stroke="#FCBD83" stroke-width="2" stroke-linecap="round" stroke-linejoin="round"/>
<path d="M48.0625 32H37.9375" stroke="#FCBD83" stroke-width="2" stroke-linecap="round" stroke-linejoin="round"/>
</svg>
