<svg width="86" height="86" viewBox="0 0 86 86" fill="none" xmlns="http://www.w3.org/2000/svg">
<circle cx="43" cy="43" r="43" fill="#D9EDFF"/>
<path d="M44.9375 42.5C48.9586 42.5 52.5113 38.7135 52.8594 34.0586C53.0323 31.7202 52.2988 29.5394 50.7936 27.9192C49.3045 26.3188 47.2227 25.4375 44.9375 25.4375C42.6341 25.4375 40.5508 26.3135 39.0723 27.9039C37.577 29.5119 36.8481 31.6973 37.0156 34.0571C37.3577 38.7127 40.9096 42.5 44.9375 42.5Z" fill="#224164"/>
<path d="M60.734 56.4973C60.0912 52.931 58.084 49.9351 54.9305 47.8328C52.1297 45.9658 48.5808 44.9375 44.9375 44.9375C41.2942 44.9375 37.7454 45.9658 34.9445 47.832C31.791 49.9344 29.7839 52.9302 29.141 56.4966C28.994 57.3139 29.1936 58.1221 29.6887 58.7139C29.9132 58.9837 30.1952 59.1998 30.514 59.3466C30.8328 59.4934 31.1803 59.5672 31.5313 59.5625H58.3438C58.6949 59.5675 59.0427 59.494 59.3618 59.3473C59.6808 59.2006 59.9631 58.9845 60.1879 58.7147C60.6815 58.1229 60.8811 57.3147 60.734 56.4973Z" fill="#224164"/>
<path d="M30.9219 44.9375V41.8906H33.9688C34.292 41.8906 34.602 41.7622 34.8305 41.5337C35.0591 41.3051 35.1875 40.9951 35.1875 40.6719C35.1875 40.3486 35.0591 40.0386 34.8305 39.8101C34.602 39.5815 34.292 39.4531 33.9688 39.4531H30.9219V36.4062C30.9219 36.083 30.7935 35.773 30.5649 35.5445C30.3364 35.3159 30.0264 35.1875 29.7031 35.1875C29.3799 35.1875 29.0699 35.3159 28.8413 35.5445C28.6128 35.773 28.4844 36.083 28.4844 36.4062V39.4531H25.4375C25.1143 39.4531 24.8043 39.5815 24.5757 39.8101C24.3472 40.0386 24.2188 40.3486 24.2188 40.6719C24.2188 40.9951 24.3472 41.3051 24.5757 41.5337C24.8043 41.7622 25.1143 41.8906 25.4375 41.8906H28.4844V44.9375C28.4844 45.2607 28.6128 45.5707 28.8413 45.7993C29.0699 46.0278 29.3799 46.1562 29.7031 46.1562C30.0264 46.1562 30.3364 46.0278 30.5649 45.7993C30.7935 45.5707 30.9219 45.2607 30.9219 44.9375Z" fill="#FCBD83"/>
</svg>
