<svg width="720" height="369" viewBox="0 0 720 369" fill="none" xmlns="http://www.w3.org/2000/svg">
<path fill-rule="evenodd" clip-rule="evenodd" d="M332 58.0735C422.345 58.595 510.113 -13.0411 587.544 8.76747C665.274 30.6604 695.67 59.516 714.5 101.073C731.547 138.694 704.645 196.752 689.865 234.583C672.624 278.713 678.629 331.437 604.02 359.57C529.041 387.842 427.351 340.744 332 334.573C247.592 329.111 154.173 355.103 94.5351 326.598C39.696 300.385 17.4024 275.603 2.49997 239.574C-10.536 208.057 36.3389 167.567 41.9998 135.574C49.6814 92.1607 -17.8577 32.7118 55.0974 5.69398C127.383 -21.076 239.856 57.5416 332 58.0735Z" fill="white"/>
</svg>
